<?xml version="1.0" encoding="UTF-8"?><svg id="Camada_2" xmlns="http://www.w3.org/2000/svg" viewBox="0 0 144.03 53.18"><g id="Camada_1-2"><g id="layer1"><path id="path760" d="M0,31.51c0,11.78,8.06,21.67,23.15,21.67h97.72c15.1,0,23.15-9.89,23.15-21.67V9.98h-7.2v21.53c0,10.67-8.24,14.47-15.95,14.47H23.15c-7.71,0-15.95-3.8-15.95-14.47V9.98H0v21.53Z" style="fill:#0e7551; stroke-width:0px;"/><path id="path762" d="M87.56,5.43c2.62,0,5.31,1.81,8.14,1.81,2.51-.02,4.89-1.13,6.52-3.03l-2.5-3.77c-.93,1.22-2.34,1.98-3.88,2.07-2.18,0-5.36-1.79-8.71-1.85-2.68,0-5.57,1.41-6.37,2.86l2.12,3.88c1.17-1.34,2.89-2.07,4.67-1.96" style="fill:#e32124; stroke-width:0px;"/><path id="path764" d="M68.47,40.23h7.24V9.97h-7.24v30.26Z" style="fill:#e32124; stroke-width:0px;"/><path id="path766" d="M36.05,9.98h-7.24v17.33c0,3.88-1.11,7.4-4.96,7.4-3.04,0-4.32-1.94-4.32-6.58V9.97h-7.24v19.51c0,6.11,2.04,11.22,8.88,11.22,4.73,0,6.6-2.88,8-5.11h.12c0,1.53.17,3.11.23,4.64h6.77c-.18-1.66-.25-3.33-.23-5V9.98Z" style="fill:#e32124; stroke-width:0px;"/><path id="path768" d="M54.91,9.51c-4.91,0-6.95,3.29-8,5.11h-.12c0-1.53-.18-3.11-.24-4.64h-6.77c.18,1.66.25,3.33.23,5v25.26h7.24v-17.63c0-3.88,1.34-7.11,5.14-7.11,2.98,0,4.14,1.94,4.14,6.58v18.15h7.25v-19.51c0-6.11-2.04-11.22-8.88-11.22" style="fill:#e32124; stroke-width:0px;"/><path id="path770" d="M119.46,35.53c-4.67,0-5.78-5.4-5.78-10.46s1.11-10.4,5.78-10.4,5.72,5.35,5.72,10.4-1.05,10.46-5.72,10.46M119.46,9.51c-6.13,0-13.26,3.23-13.26,15.57s7.12,15.63,13.26,15.63,13.2-2.94,13.2-15.63-7.07-15.57-13.2-15.57" style="fill:#e32124; stroke-width:0px;"/><path id="path772" d="M96.1,27.13c0,5.4-1.58,8.64-5.9,8.64-2.41.14-4.47-1.7-4.62-4.1-.01-.18-.01-.36,0-.54,0-4.4,3.68-5.7,9.87-5.7h.64v1.71ZM102.87,21.67c0-7.58-2.16-12.16-11.5-12.16-3.31-.02-6.57.75-9.52,2.23l.41,5.88c2.35-1.84,5.24-2.88,8.23-2.94,4.15,0,5.61,2.76,5.61,5.76v1.12h-1.46c-9.17,0-15.83,2.06-15.83,10.28,0,5.64,4.32,8.87,8.99,8.87,4.32,0,6.6-2.11,8.41-4.58h.12c-.05,1.38.08,2.77.41,4.11h6.53c-.26-1.77-.4-3.56-.41-5.35v-13.22Z" style="fill:#e32124; stroke-width:0px;"/><path id="path774" d="M72.03,0c-2.09,0-3.79,1.7-3.79,3.79h0c0,2.1,1.7,3.79,3.79,3.79h0c2.09,0,3.79-1.7,3.79-3.79h0C75.82,1.7,74.13,0,72.03,0h0" style="fill:#e32124; stroke-width:0px;"/></g></g></svg>